<?xml version="1.0" encoding="utf-8"?>
<!-- Generator: Adobe Illustrator 19.1.0, SVG Export Plug-In . SVG Version: 6.00 Build 0)  -->
<svg version="1.1"
	 id="svg2" xmlns:dc="http://purl.org/dc/elements/1.1/" xmlns:rdf="http://www.w3.org/1999/02/22-rdf-syntax-ns#" xmlns:sodipodi="http://sodipodi.sourceforge.net/DTD/sodipodi-0.dtd" xmlns:inkscape="http://www.inkscape.org/namespaces/inkscape" xmlns:svg="http://www.w3.org/2000/svg" xmlns:cc="http://creativecommons.org/ns#" inkscape:version="0.48.1 r9760" sodipodi:docname="Map_symbol-pin.svg"
	 xmlns="http://www.w3.org/2000/svg" xmlns:xlink="http://www.w3.org/1999/xlink" x="0px" y="0px" viewBox="-357 110 244 342"
	 enable-background="new -357 110 244 342" xml:space="preserve">
<sodipodi:namedview  gridtolerance="10" objecttolerance="10" guidetolerance="10" inkscape:cy="171" inkscape:cx="-58.529412" showgrid="false" bordercolor="#666666" borderopacity="1" pagecolor="#ffffff" inkscape:zoom="0.94444444" id="namedview3101" inkscape:pageopacity="0" inkscape:pageshadow="2" inkscape:current-layer="svg2" inkscape:window-x="0" inkscape:window-width="1366" inkscape:window-y="24" inkscape:window-height="744" inkscape:window-maximized="1">
	</sodipodi:namedview>
<g id="g3887">
	<path id="path2453" inkscape:connector-curvature="0" display="none" fill-opacity="0.7059" stroke="#000000" d="M-231.2,378.6
		c75.6-0.3,48.3-21.1,48.3-21.1l29.7-22.9c0,0,16.9,1.3,26.5-5l10.2-7.8c13.9-11.3-72-31-101.2-20.1l-12.4,8.7c-9,5.6,2.5,13,2.5,13
		l-27.2,21c-65,6.3-19.8,26.6-19.8,26.6l-78,73c0,0-0.5,8.9,15.7-0.1L-231.2,378.6L-231.2,378.6z"/>
	<path id="path3225" inkscape:connector-curvature="0" fill="#908FB2" stroke="#000000" stroke-width="8" d="M-307.6,257.4
		l-45.7,176.7c-2,22.9,11.3,3.3,11.3,3.3l80.5-168.4L-307.6,257.4z"/>
	
		<radialGradient id="path3227_1_" cx="-15.1748" cy="-805.2063" r="64.4991" gradientTransform="matrix(0.7725 0.2795 -0.2153 0.5287 -438.1772 669.8071)" gradientUnits="userSpaceOnUse">
		<stop  offset="0" style="stop-color:#FFFFFF"/>
		<stop  offset="0.8677" style="stop-color:#35C4E9"/>
		<stop  offset="1" style="stop-color:#0A4D94"/>
	</radialGradient>
	
		<path id="path3227" inkscape:connector-curvature="0" fill="url(#path3227_1_)" stroke="#000000" stroke-width="8" stroke-linecap="round" d="
		M-226.6,267.8c-6.7,16.9-36.3,22.2-66.1,11.9c-29.8-10.3-48.5-32.4-41.7-49.3l0,0c6.7-16.9,36.3-22.2,66.1-11.9
		S-219.9,250.9-226.6,267.8L-226.6,267.8z"/>
	<g id="path3281" inkscape:connector-curvature="0">
		<path opacity="0.1517" fill="#FFFFFF" enable-background="new    " d="M-281.1,153.1l-31.1,82.1c1.2,24.2,51.3,35.9,66.6,23.4
			l30.2-79.3L-281.1,153.1z"/>
		<path opacity="0.4929" fill="none" stroke="#000000" stroke-width="6.688" enable-background="new    " d="M-281.1,153.1
			l-31.1,82.1c1.2,24.2,51.3,35.9,66.6,23.4l30.2-79.3L-281.1,153.1z"/>
	</g>
	<path id="path3233" inkscape:connector-curvature="0" fill="#F50000" stroke="#000000" stroke-width="8" d="M-290.3,161l-25.9,72.6
		c1.3,28.2,57,41.8,73.9,27.2l27.2-74.9L-290.3,161z"/>
	
		<radialGradient id="path3231_1_" cx="-100.9419" cy="-357.5962" r="62.6726" gradientTransform="matrix(1.0529 0.2433 -0.1329 0.5751 -174.1671 369.4711)" gradientUnits="userSpaceOnUse">
		<stop  offset="0" style="stop-color:#FFFFFF"/>
		<stop  offset="0.8677" style="stop-color:#35C4E9"/>
		<stop  offset="1" style="stop-color:#0A4D94"/>
	</radialGradient>
	<path id="path3231" inkscape:connector-curvature="0" fill="url(#path3231_1_)" stroke="#000000" stroke-width="8" d="
		M-295.2,120.2l-8.4,22.2c3.6,26.9,81.9,56.4,107.7,40.8l9.6-23.2"/>
	
		<path id="path3229" inkscape:connector-curvature="0" fill="#C2E8F4" stroke="#000000" stroke-width="7.9727" stroke-linecap="round" d="
		M-188,163.3c-8,10.4-38.3,8.9-67.6-3.3c-29.3-12.3-46.6-30.7-38.6-41.1s38.3-8.9,67.6,3.3C-197.2,134.5-180,152.9-188,163.3z"/>
	<g id="path3313" inkscape:connector-curvature="0">
		
			<radialGradient id="SVGID_1_" cx="-460.1393" cy="-1671.2509" r="65.5495" gradientTransform="matrix(0.8471 0.355 -0.2322 0.2674 -239.5891 750.3628)" gradientUnits="userSpaceOnUse">
			<stop  offset="0" style="stop-color:#2191B6"/>
			<stop  offset="0.7254" style="stop-color:#4CBADE"/>
			<stop  offset="0.856" style="stop-color:#C8EAF5"/>
			<stop  offset="1" style="stop-color:#7CCDE9"/>
		</radialGradient>
		<path fill="url(#SVGID_1_)" d="M-191.8,162.5c-8.2,8.7-37,5.7-64.3-6.7s-42.9-29.4-34.7-38.1l0,0c8.2-8.7,37-5.7,64.3,6.7
			C-199.1,136.8-183.6,153.9-191.8,162.5z"/>
		
			<linearGradient id="SVGID_2_" gradientUnits="userSpaceOnUse" x1="-479.3325" y1="-1036.3746" x2="-480.0878" y2="-1064.9243" gradientTransform="matrix(0.8227 0.3723 -0.4051 0.4293 -270.3114 767.5178)">
			<stop  offset="0" style="stop-color:#000000"/>
			<stop  offset="1" style="stop-color:#000000;stop-opacity:0"/>
		</linearGradient>
		
			<path opacity="0.5403" fill="none" stroke="url(#SVGID_2_)" stroke-width="10.4432" stroke-linecap="round" enable-background="new    " d="
			M-191.8,162.5c-8.2,8.7-37,5.7-64.3-6.7s-42.9-29.4-34.7-38.1l0,0c8.2-8.7,37-5.7,64.3,6.7C-199.1,136.8-183.6,153.9-191.8,162.5z
			"/>
	</g>
</g>
</svg>
