<?xml version="1.0" encoding="UTF-8"?>
<svg xmlns="http://www.w3.org/2000/svg" onmouseup="{ if(window.parent.document.onmouseup) window.parent.document.onmouseup(arguments[0]);}" viewBox="0 0 36 36" height="128" width="128" xmlns:xlink="http://www.w3.org/1999/xlink">
  <defs>
    <circle id="help-b" cx="18" cy="18" r="16"/>
    <filter id="help-a" width="118.8%" height="118.8%" x="-9.4%" y="-9.4%" filterUnits="objectBoundingBox">
      <feOffset in="SourceAlpha" result="shadowOffsetOuter1"/>
      <feGaussianBlur in="shadowOffsetOuter1" result="shadowBlurOuter1" stdDeviation="1"/>
      <feComposite in="shadowBlurOuter1" in2="SourceAlpha" operator="out" result="shadowBlurOuter1"/>
      <feColorMatrix in="shadowBlurOuter1" values="0 0 0 0 0   0 0 0 0 0   0 0 0 0 0  0 0 0 0.5 0"/>
    </filter>
  </defs>
  <g fill="none" fill-rule="evenodd">
    <rect width="128" height="128" fill="#7ED321" opacity="0"/>
    <use xmlns:xlink="http://www.w3.org/1999/xlink" fill="#000" filter="url(#help-a)" xlink:href="#help-b"/>
    <circle cx="18" cy="18" r="15" fill="#000" stroke="#FFF" stroke-linejoin="square" stroke-width="2"/>
    <path fill="#FFF" d="M18.0013274 28.991082C16.9447421 29.0306091 15.9483114 28.5643473 15.4064192 27.7768415 14.8645269 26.9893357 14.8645269 26.0075328 15.4064192 25.220027 15.9483114 24.4325211 16.9447421 23.9662594 18.0013274 24.0057865 18.786726 23.9587291 19.5587302 24.2003018 20.1284843 24.6714084 20.6982385 25.1425151 21.0131905 25.7997027 20.9962936 26.482203 21.0376263 27.1736448 20.731689 27.8467383 20.1574261 28.3277975 19.5831632 28.8088567 18.796828 29.0507584 18.0013274 28.991082zM21.1545177 16.9427786L20.9584264 17.1554072C20.1848459 17.9947842 19.307337 18.945538 19.307337 19.5358357 19.3097829 20.0142516 19.4306086 20.4840809 19.6583406 20.9007092L19.8014873 21.182189 19.6906957 21.616559C19.5963019 21.8474307 19.3774483 21.9977054 19.1347766 21.9982781L16.5051914 21.9982781C16.2700224 22.0134948 16.0392695 21.9273408 15.8678944 21.7603365 15.3250777 21.0268492 15.0336486 20.127891 15.0394084 19.2047425 15.0394084 17.5057383 15.9551551 16.4567702 17.2209249 15.0027952 17.4170162 14.7810538 17.6042835 14.5775378 17.7846875 14.3851595 18.4013949 13.7270232 18.7788708 13.3017659 18.7788708 12.8511956 18.7788708 12.5403528 18.7788708 11.5916239 17.0277749 11.5916239 15.9309271 11.5931318 14.8569734 11.9157772 13.9305117 12.5221275 13.731936 12.6464727 13.4811081 12.6385392 13.2902733 12.5018771L13.0588855 12.3307617 13.0039799 11.8822164 13.0039799 8.9459159C12.9732655 8.61651764 13.1220596 8.29671856 13.3902799 8.11565161 14.6710934 7.3546574 16.1289088 6.96953322 17.6062444 7.00188244 20.8329279 7.00188244 22.9987571 9.14639435 22.9987571 12.3398743 23.0328507 14.0727086 22.3642463 15.7414301 21.1545177 16.9427786z"/>
  </g>
</svg>